<svg xmlns="http://www.w3.org/2000/svg" viewBox="0 0 226.57 98.42"><defs><style>.cls-1{fill:#ff1702;}</style></defs><g id="Ebene_2" data-name="Ebene 2"><g id="Ebene_1-2" data-name="Ebene 1"><path class="cls-1" d="M69.75,93.91c-4.37,2.19-13.1,4.37-24.3,4.37C19.52,98.28,0,81.9,0,51.73,0,22.93,19.52,3.41,48.05,3.41c11.46,0,18.7,2.46,21.84,4.1L67,17.2a43.3,43.3,0,0,0-18.56-3.82c-21.57,0-35.9,13.78-35.9,37.94,0,22.53,13,37,35.35,37,7.24,0,14.61-1.51,19.39-3.83Z"/><path class="cls-1" d="M119.84,96.92l-1-8.33h-.41a24.62,24.62,0,0,1-20.21,9.83c-13.37,0-20.2-9.42-20.2-19,0-16,14.2-24.7,39.72-24.57V53.51c0-5.46-1.5-15.29-15-15.29a33,33,0,0,0-17.2,4.91l-2.73-7.91c5.46-3.55,13.38-5.87,21.7-5.87,20.21,0,25.12,13.78,25.12,27v24.7a93.07,93.07,0,0,0,1.09,15.84ZM118.07,63.2c-13.11-.27-28,2-28,14.88,0,7.78,5.19,11.47,11.33,11.47a16.43,16.43,0,0,0,16-11.06,12.52,12.52,0,0,0,.69-3.82Z"/><path class="cls-1" d="M149.05,0h12V96.92h-12Z"/><path class="cls-1" d="M194.63,12.28c.14,4.1-2.86,7.38-7.64,7.38a7.14,7.14,0,0,1-7.23-7.38,7.31,7.31,0,0,1,7.5-7.5A7.12,7.12,0,0,1,194.63,12.28ZM181.26,96.92V30.85h12V96.92Z"/><path class="cls-1" d="M210.33,89.82c0-5,3.41-8.6,8.19-8.6s8,3.55,8,8.6-3.14,8.6-8.19,8.6C213.6,98.42,210.33,94.73,210.33,89.82Z"/></g></g></svg>